<svg viewBox="0 0 16 11" xmlns="http://www.w3.org/2000/svg"><path d="M0.191928 1.49603L1.47573 0.198644C1.53857 0.135675 1.61321 0.0857166 1.69539 0.0516304C1.77756 0.0175441 1.86565 0 1.95461 0C2.04357 0 2.13166 0.0175441 2.21383 0.0516304C2.296 0.0857166 2.37065 0.135675 2.43349 0.198644L7.99662 5.81612L13.5598 0.198644C13.6226 0.135675 13.6972 0.0857166 13.7794 0.0516304C13.8616 0.0175441 13.9497 0 14.0386 0C14.1276 0 14.2157 0.0175441 14.2979 0.0516304C14.38 0.0857166 14.4547 0.135675 14.5175 0.198644L15.8013 1.49603C16.0662 1.76094 16.0662 2.20246 15.8013 2.46737L8.4789 9.8713C8.41606 9.93427 8.34141 9.98423 8.25924 10.0183C8.17707 10.0524 8.08898 10.07 8.00002 10.07C7.91106 10.07 7.82297 10.0524 7.7408 10.0183C7.65863 9.98423 7.58398 9.93427 7.52114 9.8713L0.198722 2.46737C0.0713654 2.3378 0 2.16338 0 1.9817C0 1.80002 0.0713654 1.6256 0.198722 1.49603H0.191928Z"></path></svg>
