<svg preserveAspectRatio="xMidYMid meet" data-bbox="0 0 3121.96 482.102" xmlns="http://www.w3.org/2000/svg" viewBox="0 0 3122 483" fill-rule="evenodd" clip-rule="evenodd" stroke-linejoin="round" stroke-miterlimit="2" data-type="ugc" role="img" aria-label="The Tasklane logo">
    <g>
        <path d="M602.127 83.015V.277h389.816v82.738H846.631v391.901h-99.192V83.015H602.127Z" fill="#252525" fill-rule="nonzero"/>
        <path d="M1065.4 481.637c-22.71 0-42.95-3.978-60.72-11.935-17.768-7.957-31.789-19.777-42.064-35.459-10.274-15.682-15.411-35.266-15.411-58.751 0-19.776 3.631-36.385 10.892-49.827 7.262-13.442 17.15-24.258 29.665-32.446 12.518-8.189 26.768-14.369 42.758-18.541 15.99-4.172 32.8-7.107 50.41-8.807 20.7-2.163 37.39-4.21 50.06-6.141 12.67-1.932 21.86-4.829 27.58-8.691 5.71-3.863 8.57-9.58 8.57-17.15v-1.391c0-14.678-4.59-26.034-13.79-34.068-9.19-8.034-22.21-12.051-39.05-12.051-17.77 0-31.9 3.901-42.41 11.703-10.51 7.803-17.46 17.575-20.86 29.318l-91.31-7.417c4.635-21.63 13.75-40.364 27.347-56.201 13.593-15.837 31.173-28.042 52.723-36.617 21.56-8.575 46.55-12.863 74.98-12.863 19.77 0 38.74 2.318 56.89 6.953 18.16 4.635 34.3 11.819 48.44 21.553s25.3 22.21 33.49 37.429c8.19 15.219 12.28 33.412 12.28 54.579v240.1h-93.63v-49.364h-2.78c-5.72 11.124-13.36 20.897-22.94 29.317-9.58 8.421-21.09 14.987-34.54 19.7-13.44 4.712-28.97 7.068-46.58 7.068Zm28.27-68.136c14.53 0 27.35-2.897 38.48-8.691 11.12-5.794 19.85-13.635 26.19-23.524 6.33-9.888 9.5-21.09 9.5-33.604v-37.777c-3.09 2.009-7.3 3.824-12.63 5.446-5.33 1.623-11.32 3.091-17.96 4.404a448.669 448.669 0 0 1-19.94 3.476c-6.64 1.004-12.67 1.893-18.07 2.665-11.59 1.7-21.71 4.404-30.36 8.112-8.66 3.708-15.38 8.691-20.17 14.948-4.79 6.258-7.18 14.022-7.18 23.292 0 13.442 4.9 23.678 14.72 30.708 9.81 7.03 22.28 10.545 37.42 10.545Z" fill="#252525" fill-rule="nonzero"/>
        <path d="m1596.35 220.447-90.39 5.562c-1.54-7.725-4.86-14.717-9.96-20.974-5.1-6.257-11.79-11.279-20.05-15.064-8.27-3.786-18.12-5.678-29.55-5.678-15.3 0-28.2 3.206-38.7 9.618-10.51 6.412-15.76 14.948-15.76 25.609 0 8.498 3.4 15.682 10.19 21.553 6.8 5.871 18.47 10.584 35 14.137l64.43 12.979c34.61 7.107 60.41 18.54 77.41 34.3 16.99 15.759 25.49 36.463 25.49 62.111 0 23.33-6.84 43.802-20.51 61.415-13.67 17.614-32.37 31.326-56.09 41.137-23.71 9.811-51.02 14.717-81.92 14.717-47.13 0-84.63-9.85-112.52-29.549-27.89-19.699-44.23-46.545-49.02-80.536l97.11-5.098c2.93 14.369 10.04 25.3 21.32 32.793 11.28 7.494 25.73 11.241 43.34 11.241 17.3 0 31.25-3.361 41.83-10.082 10.58-6.721 15.95-15.412 16.11-26.073-.16-8.961-3.94-16.339-11.36-22.132-7.41-5.794-18.85-10.236-34.3-13.326l-61.65-12.284c-34.76-6.952-60.6-19.004-77.52-36.154-16.92-17.15-25.38-39.012-25.38-65.587 0-22.867 6.22-42.566 18.66-59.098 12.44-16.532 29.98-29.279 52.61-38.24 22.63-8.961 49.17-13.442 79.61-13.442 44.96 0 80.38 9.502 106.26 28.506 25.88 19.004 40.98 44.884 45.31 77.639Z" fill="#252525" fill-rule="nonzero"/>
        <path d="m1713.84 372.48.23-118.428h14.37l114.02-135.115h113.33L1802.6 297.854h-23.41l-65.35 74.626Zm-89.46 102.436V.277h98.73v474.639h-98.73Zm222.49 0-104.76-155.045 65.82-69.759 154.58 224.804h-115.64Z" fill="#252525" fill-rule="nonzero"/>
        <path fill="#252525" fill-rule="nonzero" d="M2060.309.277v474.639h-98.729V.277h98.729z"/>
        <path d="M2198.19 481.637c-22.71 0-42.95-3.978-60.72-11.935-17.77-7.957-31.79-19.777-42.06-35.459-10.28-15.682-15.41-35.266-15.41-58.751 0-19.776 3.63-36.385 10.89-49.827 7.26-13.442 17.15-24.258 29.66-32.446 12.52-8.189 26.77-14.369 42.76-18.541 15.99-4.172 32.8-7.107 50.41-8.807 20.7-2.163 37.39-4.21 50.06-6.141 12.67-1.932 21.86-4.829 27.58-8.691 5.72-3.863 8.57-9.58 8.57-17.15v-1.391c0-14.678-4.59-26.034-13.79-34.068-9.19-8.034-22.21-12.051-39.05-12.051-17.76 0-31.9 3.901-42.41 11.703-10.5 7.803-17.46 17.575-20.86 29.318l-91.31-7.417c4.64-21.63 13.75-40.364 27.35-56.201 13.59-15.837 31.17-28.042 52.72-36.617 21.56-8.575 46.55-12.863 74.98-12.863 19.77 0 38.74 2.318 56.89 6.953 18.16 4.635 34.3 11.819 48.44 21.553s25.3 22.21 33.49 37.429c8.19 15.219 12.28 33.412 12.28 54.579v240.1h-93.63v-49.364h-2.78c-5.72 11.124-13.36 20.897-22.94 29.317-9.58 8.421-21.09 14.987-34.53 19.7-13.45 4.712-28.97 7.068-46.59 7.068Zm28.28-68.136c14.52 0 27.35-2.897 38.47-8.691 11.12-5.794 19.85-13.635 26.19-23.524 6.33-9.888 9.5-21.09 9.5-33.604v-37.777c-3.09 2.009-7.3 3.824-12.63 5.446-5.33 1.623-11.32 3.091-17.96 4.404a450.782 450.782 0 0 1-19.93 3.476c-6.65 1.004-12.67 1.893-18.08 2.665-11.59 1.7-21.71 4.404-30.36 8.112-8.65 3.708-15.37 8.691-20.16 14.948-4.79 6.258-7.19 14.022-7.19 23.292 0 13.442 4.91 23.678 14.72 30.708 9.81 7.03 22.29 10.545 37.43 10.545Z" fill="#252525" fill-rule="nonzero"/>
        <path d="M2531.68 269.116v205.8h-98.73V118.937h94.1v62.806h4.17c7.88-20.703 21.09-37.119 39.63-49.248 18.54-12.129 41.02-18.193 67.44-18.193 24.72 0 46.28 5.408 64.66 16.223 18.39 10.815 32.68 26.227 42.88 46.236 10.19 20.008 15.29 43.84 15.29 71.497v226.658h-98.73V265.871c.16-21.785-5.4-38.819-16.68-51.102-11.28-12.283-26.81-18.425-46.59-18.425-13.28 0-24.99 2.858-35.11 8.575-10.12 5.717-18 14.021-23.64 24.914-5.64 10.893-8.53 23.987-8.69 39.283Z" fill="#252525" fill-rule="nonzero"/>
        <path d="M2958.57 481.869c-36.62 0-68.1-7.455-94.44-22.365-26.34-14.909-46.62-36.076-60.84-63.501-14.21-27.425-21.32-59.909-21.32-97.454 0-36.618 7.11-68.755 21.32-96.411 14.22-27.656 34.26-49.21 60.14-64.66 25.88-15.451 56.28-23.176 91.2-23.176 23.49 0 45.39 3.747 65.7 11.24 20.32 7.494 38.09 18.734 53.31 33.721 15.22 14.987 27.07 33.798 35.57 56.433 8.5 22.635 12.75 49.094 12.75 79.377v27.115h-300.59v-61.184h207.65c0-14.214-3.09-26.806-9.27-37.776-6.18-10.97-14.71-19.584-25.61-25.841-10.89-6.257-23.52-9.386-37.89-9.386-14.99 0-28.23 3.438-39.74 10.313-11.52 6.875-20.52 16.069-27 27.579-6.49 11.511-9.81 24.296-9.97 38.356v58.171c0 17.614 3.28 32.832 9.85 45.656 6.57 12.824 15.88 22.712 27.93 29.665 12.05 6.953 26.34 10.429 42.87 10.429 10.97 0 21.01-1.545 30.13-4.635 9.12-3.09 16.92-7.725 23.41-13.905 6.49-6.181 11.43-13.751 14.83-22.713l91.31 6.026c-4.63 21.94-14.1 41.06-28.39 57.36-14.29 16.3-32.67 28.97-55.16 38.008-22.48 9.039-48.39 13.558-77.75 13.558Z" fill="#252525" fill-rule="nonzero"/>
        <path d="M213.168 481.999 0 482.102 197.128 0H327.19L213.168 481.999Z" fill="#3ea7b8"/>
        <path d="M312.191 169.094h154.353l-13.239 143.914H278.147l34.044-143.914Zm138.808 168.985-13.23 143.811-199.595.097 34.042-143.908h178.783ZM352.192 0H482.1l-13.239 143.914H318.148L352.192 0Z" fill="#ff2c2c"/>
        <path d="M352.192 0H482.1l-13.239 143.914H318.148L352.192 0Z" fill="#e9444b"/>
        <path d="M312.191 169.094h154.353l-13.239 143.914H278.147l34.044-143.914Z" fill="#ffbd33"/>
        <path d="M272.216 338.079h178.783l-13.23 143.811-199.595.097 34.042-143.908Z" fill="#72c2b0"/>
    </g>
</svg>
