<svg preserveAspectRatio="xMidYMid meet" data-bbox="25.175 52 150.825 96" xmlns="http://www.w3.org/2000/svg" viewBox="25.175 52 150.825 96" height="200" width="200" data-type="color" role="presentation" aria-hidden="true" aria-label=""><defs><style>#comp-lsgi395k4 svg [data-color="1"] {fill: #252525;}</style></defs>
    <g>
        <path fill="#000002" d="M107.443 113.262c0 19.604 16.131 35.483 35.639 34.711 17.787-.701 32.199-15.307 32.891-33.333.762-19.77-14.906-36.117-34.251-36.117h-.121c-6.24.025-10.8-6.023-8.928-12.058a71.563 71.563 0 0 1 4.764-11.628c.39-.592.39-1.381.195-1.974-.195-.394-.584-.789-.974-.789-.584-.197-1.168 0-1.947.592-8.181 7.106-15.192 16.383-19.867 26.647-4.284 9.474-6.816 19.54-7.206 30.199-.191 1.184-.191 2.566-.191 3.75h-.004Z" data-color="1"></path>
        <path fill="#000002" d="M25.175 113.262c0 19.604 16.131 35.483 35.64 34.711 17.785-.701 32.198-15.307 32.89-33.333.762-19.77-14.906-36.117-34.25-36.117h-.122c-6.24.025-10.8-6.023-8.928-12.058a71.576 71.576 0 0 1 4.764-11.628c.39-.592.39-1.381.195-1.974-.195-.394-.584-.789-.974-.789-.584-.197-1.168 0-1.947.592-8.18 7.106-15.192 16.383-19.866 26.647-4.285 9.474-6.817 19.54-7.207 30.199-.191 1.184-.191 2.566-.191 3.75h-.004Z" data-color="1"></path>
    </g>
</svg>
